<mxfile host="app.diagrams.net" modified="2023-03-11T08:23:23.637Z" agent="5.0 (X11; Linux x86_64) AppleWebKit/537.36 (KHTML, like Gecko) Chrome/101.0.0.0 Safari/537.36" etag="DOMuwZSw9ElZc8lZzAuF" version="21.0.6" type="github">
  <diagram name="Página-1" id="TAp2GsE01xnfV-GOAAfx">
    <mxGraphModel dx="2261" dy="763" grid="1" gridSize="10" guides="1" tooltips="1" connect="1" arrows="1" fold="1" page="1" pageScale="1" pageWidth="827" pageHeight="1169" math="0" shadow="0">
      <root>
        <mxCell id="0" />
        <mxCell id="1" parent="0" />
        <mxCell id="xHVBZaWWuP-A75dY590X-3" value="" style="edgeStyle=orthogonalEdgeStyle;rounded=0;orthogonalLoop=1;jettySize=auto;html=1;entryX=0.5;entryY=0;entryDx=0;entryDy=0;" edge="1" parent="1" source="xHVBZaWWuP-A75dY590X-1" target="xHVBZaWWuP-A75dY590X-4">
          <mxGeometry relative="1" as="geometry" />
        </mxCell>
        <mxCell id="xHVBZaWWuP-A75dY590X-6" style="edgeStyle=orthogonalEdgeStyle;rounded=0;orthogonalLoop=1;jettySize=auto;html=1;exitX=1;exitY=0.5;exitDx=0;exitDy=0;entryX=0.5;entryY=0;entryDx=0;entryDy=0;" edge="1" parent="1" source="xHVBZaWWuP-A75dY590X-1" target="xHVBZaWWuP-A75dY590X-5">
          <mxGeometry relative="1" as="geometry" />
        </mxCell>
        <mxCell id="xHVBZaWWuP-A75dY590X-1" value="Fotos desordenadas" style="rounded=1;whiteSpace=wrap;html=1;" vertex="1" parent="1">
          <mxGeometry x="414" y="70" width="120" height="60" as="geometry" />
        </mxCell>
        <mxCell id="xHVBZaWWuP-A75dY590X-2" value="Fotos Ordenadas" style="rounded=1;whiteSpace=wrap;html=1;" vertex="1" parent="1">
          <mxGeometry x="270" y="950" width="120" height="60" as="geometry" />
        </mxCell>
        <mxCell id="xHVBZaWWuP-A75dY590X-29" style="edgeStyle=orthogonalEdgeStyle;rounded=0;orthogonalLoop=1;jettySize=auto;html=1;" edge="1" parent="1" source="xHVBZaWWuP-A75dY590X-4" target="xHVBZaWWuP-A75dY590X-11">
          <mxGeometry relative="1" as="geometry" />
        </mxCell>
        <mxCell id="xHVBZaWWuP-A75dY590X-4" value="Fotos con Exifr Información" style="rounded=1;whiteSpace=wrap;html=1;" vertex="1" parent="1">
          <mxGeometry x="230" y="220" width="120" height="60" as="geometry" />
        </mxCell>
        <mxCell id="xHVBZaWWuP-A75dY590X-34" style="edgeStyle=orthogonalEdgeStyle;rounded=0;orthogonalLoop=1;jettySize=auto;html=1;entryX=0;entryY=0.75;entryDx=0;entryDy=0;" edge="1" parent="1" source="xHVBZaWWuP-A75dY590X-5" target="xHVBZaWWuP-A75dY590X-40">
          <mxGeometry relative="1" as="geometry">
            <mxPoint x="760" y="230" as="targetPoint" />
            <Array as="points">
              <mxPoint x="725" y="240" />
              <mxPoint x="725" y="160" />
              <mxPoint x="790" y="160" />
            </Array>
          </mxGeometry>
        </mxCell>
        <mxCell id="xHVBZaWWuP-A75dY590X-5" value="Fotos sin Exifr Información" style="rounded=1;whiteSpace=wrap;html=1;" vertex="1" parent="1">
          <mxGeometry x="580" y="160" width="120" height="60" as="geometry" />
        </mxCell>
        <mxCell id="xHVBZaWWuP-A75dY590X-13" style="edgeStyle=orthogonalEdgeStyle;rounded=0;orthogonalLoop=1;jettySize=auto;html=1;" edge="1" parent="1" source="xHVBZaWWuP-A75dY590X-11" target="xHVBZaWWuP-A75dY590X-31">
          <mxGeometry relative="1" as="geometry">
            <mxPoint x="160" y="580" as="targetPoint" />
            <Array as="points">
              <mxPoint x="300" y="530" />
            </Array>
          </mxGeometry>
        </mxCell>
        <mxCell id="xHVBZaWWuP-A75dY590X-11" value="Crear nuevo nombre" style="rounded=1;whiteSpace=wrap;html=1;" vertex="1" parent="1">
          <mxGeometry x="230" y="340" width="120" height="60" as="geometry" />
        </mxCell>
        <mxCell id="xHVBZaWWuP-A75dY590X-15" style="edgeStyle=orthogonalEdgeStyle;rounded=0;orthogonalLoop=1;jettySize=auto;html=1;" edge="1" parent="1" source="xHVBZaWWuP-A75dY590X-14" target="xHVBZaWWuP-A75dY590X-16">
          <mxGeometry relative="1" as="geometry">
            <mxPoint x="160" y="670" as="targetPoint" />
          </mxGeometry>
        </mxCell>
        <mxCell id="xHVBZaWWuP-A75dY590X-14" value="Encontrar o crear directorio" style="rounded=1;whiteSpace=wrap;html=1;" vertex="1" parent="1">
          <mxGeometry x="150" y="850" width="120" height="60" as="geometry" />
        </mxCell>
        <mxCell id="xHVBZaWWuP-A75dY590X-17" style="edgeStyle=orthogonalEdgeStyle;rounded=0;orthogonalLoop=1;jettySize=auto;html=1;" edge="1" parent="1" source="xHVBZaWWuP-A75dY590X-16" target="xHVBZaWWuP-A75dY590X-2">
          <mxGeometry relative="1" as="geometry" />
        </mxCell>
        <mxCell id="xHVBZaWWuP-A75dY590X-16" value="Mover fotos a la carpeta" style="rounded=1;whiteSpace=wrap;html=1;" vertex="1" parent="1">
          <mxGeometry x="100" y="640" width="120" height="60" as="geometry" />
        </mxCell>
        <mxCell id="xHVBZaWWuP-A75dY590X-23" style="edgeStyle=orthogonalEdgeStyle;rounded=0;orthogonalLoop=1;jettySize=auto;html=1;" edge="1" parent="1" source="xHVBZaWWuP-A75dY590X-22" target="xHVBZaWWuP-A75dY590X-24">
          <mxGeometry relative="1" as="geometry">
            <mxPoint x="690" y="410" as="targetPoint" />
          </mxGeometry>
        </mxCell>
        <mxCell id="xHVBZaWWuP-A75dY590X-22" value="Tomar fecha del nombre" style="rounded=1;whiteSpace=wrap;html=1;" vertex="1" parent="1">
          <mxGeometry x="630" y="310" width="120" height="60" as="geometry" />
        </mxCell>
        <mxCell id="xHVBZaWWuP-A75dY590X-30" style="edgeStyle=orthogonalEdgeStyle;rounded=0;orthogonalLoop=1;jettySize=auto;html=1;" edge="1" parent="1" source="xHVBZaWWuP-A75dY590X-24" target="xHVBZaWWuP-A75dY590X-31">
          <mxGeometry relative="1" as="geometry">
            <mxPoint x="500" y="440" as="targetPoint" />
            <Array as="points">
              <mxPoint x="690" y="530" />
              <mxPoint x="510" y="530" />
            </Array>
          </mxGeometry>
        </mxCell>
        <mxCell id="xHVBZaWWuP-A75dY590X-24" value="Crear nuevo nombre" style="rounded=1;whiteSpace=wrap;html=1;" vertex="1" parent="1">
          <mxGeometry x="630" y="420" width="120" height="60" as="geometry" />
        </mxCell>
        <mxCell id="xHVBZaWWuP-A75dY590X-28" value="Como saber que un exifr no está bien colocado?" style="ellipse;shape=cloud;whiteSpace=wrap;html=1;" vertex="1" parent="1">
          <mxGeometry x="-220" y="100" width="340" height="170" as="geometry" />
        </mxCell>
        <mxCell id="xHVBZaWWuP-A75dY590X-43" style="edgeStyle=orthogonalEdgeStyle;rounded=0;orthogonalLoop=1;jettySize=auto;html=1;" edge="1" parent="1" source="xHVBZaWWuP-A75dY590X-31" target="xHVBZaWWuP-A75dY590X-44">
          <mxGeometry relative="1" as="geometry">
            <mxPoint x="460" y="720" as="targetPoint" />
          </mxGeometry>
        </mxCell>
        <mxCell id="xHVBZaWWuP-A75dY590X-31" value="¿Comprobar orden antes de ordernar?" style="rounded=1;whiteSpace=wrap;html=1;" vertex="1" parent="1">
          <mxGeometry x="450" y="590" width="120" height="60" as="geometry" />
        </mxCell>
        <mxCell id="xHVBZaWWuP-A75dY590X-36" style="edgeStyle=orthogonalEdgeStyle;rounded=0;orthogonalLoop=1;jettySize=auto;html=1;entryX=1;entryY=0.75;entryDx=0;entryDy=0;" edge="1" parent="1" source="xHVBZaWWuP-A75dY590X-35" target="xHVBZaWWuP-A75dY590X-22">
          <mxGeometry relative="1" as="geometry">
            <mxPoint x="800" y="360" as="targetPoint" />
            <Array as="points">
              <mxPoint x="850" y="330" />
              <mxPoint x="750" y="330" />
            </Array>
          </mxGeometry>
        </mxCell>
        <mxCell id="xHVBZaWWuP-A75dY590X-47" value="si" style="edgeLabel;html=1;align=center;verticalAlign=middle;resizable=0;points=[];" vertex="1" connectable="0" parent="xHVBZaWWuP-A75dY590X-36">
          <mxGeometry x="-0.5886" y="3" relative="1" as="geometry">
            <mxPoint as="offset" />
          </mxGeometry>
        </mxCell>
        <mxCell id="xHVBZaWWuP-A75dY590X-48" style="edgeStyle=orthogonalEdgeStyle;rounded=0;orthogonalLoop=1;jettySize=auto;html=1;entryX=0.5;entryY=0;entryDx=0;entryDy=0;" edge="1" parent="1" source="xHVBZaWWuP-A75dY590X-35" target="xHVBZaWWuP-A75dY590X-46">
          <mxGeometry relative="1" as="geometry">
            <mxPoint x="960" y="310" as="targetPoint" />
          </mxGeometry>
        </mxCell>
        <mxCell id="xHVBZaWWuP-A75dY590X-49" value="no" style="edgeLabel;html=1;align=center;verticalAlign=middle;resizable=0;points=[];" vertex="1" connectable="0" parent="xHVBZaWWuP-A75dY590X-48">
          <mxGeometry x="0.2847" y="-5" relative="1" as="geometry">
            <mxPoint as="offset" />
          </mxGeometry>
        </mxCell>
        <mxCell id="xHVBZaWWuP-A75dY590X-35" value="Detectar si tiene una fecha y hora en el nombre" style="rounded=1;whiteSpace=wrap;html=1;" vertex="1" parent="1">
          <mxGeometry x="803" y="220" width="120" height="60" as="geometry" />
        </mxCell>
        <mxCell id="xHVBZaWWuP-A75dY590X-41" style="edgeStyle=orthogonalEdgeStyle;rounded=0;orthogonalLoop=1;jettySize=auto;html=1;" edge="1" parent="1" source="xHVBZaWWuP-A75dY590X-40" target="xHVBZaWWuP-A75dY590X-35">
          <mxGeometry relative="1" as="geometry" />
        </mxCell>
        <mxCell id="xHVBZaWWuP-A75dY590X-40" value="Detectar grupo de archivos con un formato en el nombre" style="rounded=1;whiteSpace=wrap;html=1;" vertex="1" parent="1">
          <mxGeometry x="803" y="117" width="120" height="60" as="geometry" />
        </mxCell>
        <mxCell id="xHVBZaWWuP-A75dY590X-44" value="Mostrar simulador" style="rounded=1;whiteSpace=wrap;html=1;" vertex="1" parent="1">
          <mxGeometry x="400" y="690" width="120" height="60" as="geometry" />
        </mxCell>
        <mxCell id="xHVBZaWWuP-A75dY590X-45" value="" style="rounded=1;whiteSpace=wrap;html=1;" vertex="1" parent="1">
          <mxGeometry x="590" y="690" width="120" height="60" as="geometry" />
        </mxCell>
        <mxCell id="xHVBZaWWuP-A75dY590X-46" value="Crear nombre LastModifiedDate or CreationDate" style="rounded=1;whiteSpace=wrap;html=1;" vertex="1" parent="1">
          <mxGeometry x="900" y="320" width="120" height="60" as="geometry" />
        </mxCell>
      </root>
    </mxGraphModel>
  </diagram>
</mxfile>
